<svg width="50" height="50" viewBox="0 0 50 50" fill="none" xmlns="http://www.w3.org/2000/svg">
<g id="Frame">
<path id="Vector" d="M24.9998 35.4166C25.5901 35.4166 26.0849 35.217 26.4842 34.8177C26.8835 34.4184 27.0832 33.9236 27.0832 33.3333C27.0832 32.743 26.8835 32.2482 26.4842 31.8489C26.0849 31.4496 25.5901 31.25 24.9998 31.25C24.4096 31.25 23.9148 31.4496 23.5155 31.8489C23.1162 32.2482 22.9165 32.743 22.9165 33.3333C22.9165 33.9236 23.1162 34.4184 23.5155 34.8177C23.9148 35.217 24.4096 35.4166 24.9998 35.4166ZM22.9165 27.0833H27.0832V14.5833H22.9165V27.0833ZM24.9998 45.8333C22.1179 45.8333 19.4096 45.2864 16.8748 44.1927C14.3401 43.0989 12.1353 41.6145 10.2603 39.7395C8.38525 37.8645 6.90088 35.6597 5.80713 33.125C4.71338 30.5902 4.1665 27.8819 4.1665 25C4.1665 22.118 4.71338 19.4097 5.80713 16.875C6.90088 14.3402 8.38525 12.1354 10.2603 10.2604C12.1353 8.38538 14.3401 6.901 16.8748 5.80725C19.4096 4.7135 22.1179 4.16663 24.9998 4.16663C27.8818 4.16663 30.5901 4.7135 33.1248 5.80725C35.6596 6.901 37.8644 8.38538 39.7394 10.2604C41.6144 12.1354 43.0988 14.3402 44.1925 16.875C45.2863 19.4097 45.8332 22.118 45.8332 25C45.8332 27.8819 45.2863 30.5902 44.1925 33.125C43.0988 35.6597 41.6144 37.8645 39.7394 39.7395C37.8644 41.6145 35.6596 43.0989 33.1248 44.1927C30.5901 45.2864 27.8818 45.8333 24.9998 45.8333ZM24.9998 41.6666C29.6526 41.6666 33.5936 40.052 36.8228 36.8229C40.0519 33.5937 41.6665 29.6527 41.6665 25C41.6665 20.3472 40.0519 16.4062 36.8228 13.177C33.5936 9.94788 29.6526 8.33329 24.9998 8.33329C20.3471 8.33329 16.4061 9.94788 13.1769 13.177C9.94775 16.4062 8.33317 20.3472 8.33317 25C8.33317 29.6527 9.94775 33.5937 13.1769 36.8229C16.4061 40.052 20.3471 41.6666 24.9998 41.6666Z" fill="#FFCC00"/>
</g>
</svg>
